<svg width="600" height="424" viewBox="0 0 600 424" fill="none" xmlns="http://www.w3.org/2000/svg">
<g clip-path="url(#clip0_314_108)">
<path d="M132.955 42.3827H94.6915C91.0129 42.3861 87.4859 43.8499 84.8847 46.4529C82.2835 49.056 80.8207 52.5855 80.8174 56.2667V97.7799C80.3282 97.7506 79.839 97.7068 79.357 97.6483C70.2921 96.6939 61.6739 93.2243 54.4741 87.6307C47.2742 82.0371 41.7791 74.5419 38.6082 65.9902C35.4373 57.4386 34.7167 48.1705 36.5278 39.2309C38.3388 30.2913 42.6095 22.0358 48.8582 15.3952C55.1068 8.75452 63.0851 3.99281 71.8934 1.64689C80.7017 -0.699023 89.9897 -0.53584 98.7103 2.11805C107.431 4.77194 115.237 9.811 121.249 16.6671C127.261 23.5231 131.239 31.9236 132.736 40.9212C132.816 41.4035 132.889 41.8931 132.955 42.3827Z" fill="#F2F2F2"/>
<path d="M584.666 40.9213H94.6915C90.6259 40.9257 86.7281 42.5439 83.8533 45.4208C80.9785 48.2976 79.3614 52.1982 79.357 56.2667V314.947C79.3614 319.016 80.9785 322.917 83.8533 325.793C86.7281 328.67 90.6259 330.288 94.6915 330.293H584.666C588.731 330.288 592.629 328.67 595.504 325.793C598.379 322.917 599.996 319.016 600 314.947V56.2667C599.996 52.1982 598.379 48.2976 595.504 45.4208C592.629 42.5439 588.731 40.9257 584.666 40.9213ZM598.54 314.947C598.536 318.629 597.073 322.158 594.472 324.761C591.871 327.364 588.344 328.828 584.666 328.831H94.6915C91.0129 328.828 87.4859 327.364 84.8847 324.761C82.2836 322.158 80.8208 318.629 80.8174 314.947V56.2667C80.8208 52.5855 82.2836 49.056 84.8847 46.4529C87.4859 43.8499 91.0129 42.3861 94.6915 42.3827H584.666C588.344 42.3861 591.871 43.8499 594.472 46.4529C597.073 49.056 598.536 52.5855 598.54 56.2667V314.947Z" fill="#3F3D56"/>
<path d="M560.568 82.8433H118.789C118.595 82.8433 118.409 82.7663 118.272 82.6293C118.135 82.4923 118.058 82.3064 118.058 82.1126C118.058 81.9188 118.135 81.7329 118.272 81.5959C118.409 81.4588 118.595 81.3818 118.789 81.3818H560.568C560.762 81.3818 560.948 81.4588 561.085 81.5959C561.222 81.7329 561.299 81.9188 561.299 82.1126C561.299 82.3064 561.222 82.4923 561.085 82.6293C560.948 82.7663 560.762 82.8433 560.568 82.8433Z" fill="#3F3D56"/>
<path d="M243.655 298.871C243.462 298.871 243.276 298.794 243.139 298.657C243.002 298.52 242.925 298.334 242.925 298.141V57.7282C242.925 57.5344 243.002 57.3485 243.139 57.2115C243.276 57.0744 243.462 56.9974 243.655 56.9974C243.849 56.9974 244.035 57.0744 244.172 57.2115C244.309 57.3485 244.385 57.5344 244.385 57.7282V298.141C244.385 298.334 244.309 298.52 244.172 298.657C244.035 298.794 243.849 298.871 243.655 298.871Z" fill="#3F3D56"/>
<path d="M353.918 298.871C353.724 298.871 353.538 298.794 353.401 298.657C353.264 298.52 353.188 298.334 353.188 298.141V57.7282C353.188 57.5344 353.264 57.3485 353.401 57.2115C353.538 57.0744 353.724 56.9974 353.918 56.9974C354.111 56.9974 354.297 57.0744 354.434 57.2115C354.571 57.3485 354.648 57.5344 354.648 57.7282V298.141C354.648 298.334 354.571 298.52 354.434 298.657C354.297 298.794 354.111 298.871 353.918 298.871Z" fill="#3F3D56"/>
<path d="M464.18 298.871C463.986 298.871 463.801 298.794 463.664 298.657C463.527 298.52 463.45 298.334 463.45 298.141V57.7282C463.45 57.5344 463.527 57.3485 463.664 57.2115C463.801 57.0744 463.986 56.9974 464.18 56.9974C464.374 56.9974 464.559 57.0744 464.696 57.2115C464.833 57.3485 464.91 57.5344 464.91 57.7282V298.141C464.91 298.334 464.833 298.52 464.696 298.657C464.559 298.794 464.374 298.871 464.18 298.871Z" fill="#3F3D56"/>
<path d="M172.763 158.268H146.081C145.21 158.267 144.374 157.921 143.758 157.304C143.142 156.688 142.796 155.852 142.795 154.98V123.471C142.796 122.599 143.142 121.763 143.758 121.147C144.374 120.53 145.21 120.184 146.081 120.183H172.763C173.634 120.184 174.469 120.53 175.085 121.147C175.701 121.763 176.048 122.599 176.049 123.471V154.98C176.048 155.852 175.701 156.688 175.085 157.304C174.469 157.921 173.634 158.267 172.763 158.268Z" fill="#FF4155"/>
<path d="M210.734 248.149H184.052C183.181 248.148 182.346 247.801 181.73 247.185C181.114 246.568 180.767 245.732 180.766 244.861V213.352C180.767 212.48 181.114 211.644 181.73 211.027C182.346 210.411 183.181 210.064 184.052 210.063H210.734C211.605 210.064 212.44 210.411 213.056 211.027C213.673 211.644 214.019 212.48 214.02 213.352V244.861C214.019 245.732 213.673 246.568 213.056 247.185C212.44 247.801 211.605 248.148 210.734 248.149Z" fill="#FF4155"/>
<path d="M296.899 177.267H270.217C269.346 177.266 268.511 176.92 267.895 176.303C267.279 175.687 266.932 174.851 266.931 173.979V142.47C266.932 141.598 267.279 140.762 267.895 140.146C268.511 139.529 269.346 139.183 270.217 139.182H296.899C297.771 139.183 298.606 139.529 299.222 140.146C299.838 140.762 300.184 141.598 300.185 142.47V173.979C300.184 174.851 299.838 175.687 299.222 176.303C298.606 176.92 297.771 177.266 296.899 177.267Z" fill="#FF4155"/>
<path d="M408.622 142.923H381.94C381.069 142.922 380.234 142.575 379.618 141.959C379.002 141.342 378.655 140.506 378.654 139.635V108.125C378.655 107.254 379.002 106.418 379.618 105.801C380.234 105.185 381.069 104.838 381.94 104.837H408.622C409.493 104.838 410.329 105.185 410.945 105.801C411.561 106.418 411.907 107.254 411.908 108.125V139.635C411.907 140.506 411.561 141.342 410.945 141.959C410.329 142.575 409.493 142.922 408.622 142.923Z" fill="#FF4155"/>
<path d="M511.583 142.923H484.901C484.029 142.922 483.194 142.575 482.578 141.959C481.962 141.342 481.616 140.506 481.615 139.635V108.125C481.616 107.254 481.962 106.418 482.578 105.801C483.194 105.185 484.029 104.838 484.901 104.837H511.583C512.454 104.838 513.289 105.185 513.905 105.801C514.521 106.418 514.868 107.254 514.869 108.125V139.635C514.868 140.506 514.521 141.342 513.905 141.959C513.289 142.575 512.454 142.922 511.583 142.923Z" fill="#FF4155"/>
<path d="M559.046 151.692H532.364C531.493 151.691 530.658 151.344 530.042 150.727C529.426 150.111 529.079 149.275 529.078 148.403V116.894C529.079 116.023 529.426 115.187 530.042 114.57C530.658 113.954 531.493 113.607 532.364 113.606H559.046C559.918 113.607 560.753 113.954 561.369 114.57C561.985 115.187 562.331 116.023 562.332 116.894V148.403C562.331 149.275 561.985 150.111 561.369 150.728C560.753 151.344 559.918 151.691 559.046 151.692Z" fill="#E6E6E6"/>
<path d="M537.87 207.958H511.188C510.317 207.957 509.482 207.611 508.866 206.994C508.25 206.378 507.903 205.542 507.902 204.67V173.161C507.903 172.289 508.25 171.453 508.866 170.837C509.482 170.22 510.317 169.874 511.188 169.873H537.87C538.741 169.874 539.577 170.22 540.193 170.837C540.809 171.453 541.155 172.289 541.156 173.161V204.67C541.155 205.542 540.809 206.378 540.193 206.994C539.577 207.611 538.741 207.957 537.87 207.958Z" fill="#E6E6E6"/>
<path d="M447.324 196.267H420.642C419.77 196.266 418.935 195.919 418.319 195.302C417.703 194.686 417.357 193.85 417.356 192.978V161.469C417.357 160.597 417.703 159.762 418.319 159.145C418.935 158.529 419.77 158.182 420.642 158.181H447.324C448.195 158.182 449.03 158.529 449.646 159.145C450.262 159.762 450.609 160.597 450.61 161.469V192.978C450.609 193.85 450.262 194.686 449.646 195.302C449.03 195.919 448.195 196.266 447.324 196.267Z" fill="#FF6584"/>
<path d="M395.478 207.958H368.796C367.925 207.957 367.09 207.611 366.474 206.994C365.858 206.378 365.511 205.542 365.51 204.67V173.161C365.511 172.289 365.858 171.453 366.474 170.837C367.09 170.22 367.925 169.874 368.796 169.873H395.478C396.35 169.874 397.185 170.22 397.801 170.837C398.417 171.453 398.763 172.289 398.764 173.161V204.67C398.763 205.542 398.417 206.378 397.801 206.994C397.185 207.611 396.35 207.957 395.478 207.958Z" fill="#E6E6E6"/>
<path d="M283.756 257.648H257.074C256.202 257.647 255.367 257.301 254.751 256.684C254.135 256.068 253.789 255.232 253.788 254.36V222.851C253.789 221.979 254.135 221.143 254.751 220.527C255.367 219.911 256.202 219.564 257.074 219.563H283.756C284.627 219.564 285.462 219.911 286.078 220.527C286.694 221.143 287.041 221.979 287.042 222.851V254.36C287.041 255.232 286.694 256.068 286.078 256.684C285.462 257.301 284.627 257.647 283.756 257.648Z" fill="#E6E6E6"/>
<path d="M148.666 215.997H121.984C121.113 215.996 120.277 215.649 119.661 215.032C119.045 214.416 118.699 213.58 118.698 212.708V181.199C118.699 180.327 119.045 179.491 119.661 178.875C120.277 178.259 121.113 177.912 121.984 177.911H148.666C149.537 177.912 150.372 178.259 150.988 178.875C151.604 179.491 151.951 180.327 151.952 181.199V212.708C151.951 213.58 151.604 214.416 150.988 215.032C150.372 215.649 149.537 215.996 148.666 215.997Z" fill="#FF6584"/>
<path d="M223.878 158.268H197.196C196.325 158.267 195.489 157.921 194.873 157.304C194.257 156.688 193.911 155.852 193.91 154.98V123.471C193.911 122.599 194.257 121.763 194.873 121.147C195.489 120.53 196.325 120.184 197.196 120.183H223.878C224.749 120.184 225.584 120.53 226.2 121.147C226.816 121.763 227.163 122.599 227.164 123.471V154.98C227.163 155.852 226.816 156.688 226.2 157.304C225.584 157.921 224.749 158.267 223.878 158.268Z" fill="#E6E6E6"/>
<path d="M202.033 70.8814H160.411C159.636 70.8814 158.893 70.5735 158.345 70.0253C157.798 69.4771 157.49 68.7337 157.49 67.9585C157.49 67.1833 157.798 66.4398 158.345 65.8916C158.893 65.3435 159.636 65.0355 160.411 65.0355H202.033C202.808 65.0355 203.551 65.3435 204.098 65.8916C204.646 66.4398 204.954 67.1833 204.954 67.9585C204.954 68.7337 204.646 69.4771 204.098 70.0253C203.551 70.5735 202.808 70.8814 202.033 70.8814Z" fill="#CCCCCC"/>
<path d="M319.598 70.8814H277.975C277.201 70.8814 276.458 70.5735 275.91 70.0253C275.362 69.4771 275.055 68.7337 275.055 67.9585C275.055 67.1833 275.362 66.4398 275.91 65.8916C276.458 65.3435 277.201 65.0355 277.975 65.0355H319.598C320.372 65.0355 321.115 65.3435 321.663 65.8916C322.211 66.4398 322.518 67.1833 322.518 67.9585C322.518 68.7337 322.211 69.4771 321.663 70.0253C321.115 70.5735 320.372 70.8814 319.598 70.8814Z" fill="#CCCCCC"/>
<path d="M429.86 70.8814H388.238C387.463 70.8814 386.72 70.5735 386.172 70.0253C385.625 69.4771 385.317 68.7337 385.317 67.9585C385.317 67.1833 385.625 66.4398 386.172 65.8916C386.72 65.3435 387.463 65.0355 388.238 65.0355H429.86C430.635 65.0355 431.378 65.3435 431.925 65.8916C432.473 66.4398 432.781 67.1833 432.781 67.9585C432.781 68.7337 432.473 69.4771 431.925 70.0253C431.378 70.5735 430.635 70.8814 429.86 70.8814Z" fill="#CCCCCC"/>
<path d="M532.82 70.8814H491.198C490.423 70.8814 489.68 70.5735 489.133 70.0253C488.585 69.4771 488.277 68.7337 488.277 67.9585C488.277 67.1833 488.585 66.4398 489.133 65.8916C489.68 65.3435 490.423 65.0355 491.198 65.0355H532.82C533.595 65.0355 534.338 65.3435 534.886 65.8916C535.433 66.4398 535.741 67.1833 535.741 67.9585C535.741 68.7337 535.433 69.4771 534.886 70.0253C534.338 70.5735 533.595 70.8814 532.82 70.8814Z" fill="#CCCCCC"/>
<path d="M108.809 284.908C107.74 284.803 106.708 284.465 105.784 283.918C104.86 283.371 104.068 282.628 103.462 281.741C102.856 280.854 102.452 279.845 102.278 278.785C102.105 277.725 102.165 276.639 102.456 275.605L83.7383 258.169L93.6347 255.657L112.04 270.596C113.744 271.199 115.167 272.408 116.04 273.991C116.913 275.575 117.175 277.424 116.777 279.188C116.379 280.952 115.347 282.509 113.879 283.563C112.41 284.617 110.606 285.096 108.809 284.908Z" fill="#FFB8B8"/>
<path d="M134.655 413.782H143.607L147.866 379.227H134.653L134.655 413.782Z" fill="#FFB8B8"/>
<path d="M160.872 422.099L132.736 422.101L132.736 411.222L150.001 411.222C152.884 411.221 155.649 412.367 157.688 414.407C159.727 416.447 160.872 419.214 160.872 422.099L160.872 422.099Z" fill="#12130F"/>
<path d="M73.2734 407.313L81.925 409.618L94.9235 377.322L82.1557 373.922L73.2734 407.313Z" fill="#FFB8B8"/>
<path d="M96.4708 422.102L69.2819 414.86L72.078 404.348L88.7621 408.792C91.5482 409.534 93.9255 411.353 95.3712 413.849C96.8168 416.346 97.2124 419.314 96.4708 422.102Z" fill="#12130F"/>
<path d="M146.014 407.239H132.354C131.491 407.242 130.659 406.922 130.02 406.341C129.381 405.761 128.983 404.962 128.903 404.102L120.61 317.925C120.55 317.293 120.271 316.702 119.823 316.253C119.374 315.803 118.784 315.524 118.152 315.462C117.521 315.4 116.887 315.56 116.361 315.914C115.834 316.268 115.446 316.795 115.264 317.403L91.1868 397.93C90.9321 398.786 90.3571 399.51 89.5816 399.952C88.8062 400.394 87.8901 400.519 87.0246 400.302L74.3166 397.122C73.8731 397.011 73.4558 396.813 73.0889 396.54C72.722 396.267 72.4127 395.924 72.1787 395.531C71.9447 395.138 71.7908 394.703 71.7257 394.25C71.6606 393.797 71.6856 393.336 71.7994 392.893C72.0069 392.082 92.5452 311.76 92.7246 310.935C97.3781 276.614 102.945 267.417 105.936 262.476C106.184 262.068 106.411 261.691 106.616 261.336C106.873 260.891 108.451 256.481 109.452 253.616C109.582 253.15 109.807 252.716 110.113 252.342C110.419 251.967 110.8 251.66 111.23 251.44C123.798 245.009 138.502 249.461 142.709 250.979C143.407 251.224 144.006 251.69 144.416 252.305C157.038 271.357 150.844 382.005 149.474 403.992C149.417 404.872 149.028 405.697 148.385 406.3C147.743 406.903 146.895 407.239 146.014 407.239Z" fill="#12130F"/>
<path d="M110.762 188.958C120.667 188.958 128.697 180.922 128.697 171.01C128.697 161.098 120.667 153.062 110.762 153.062C100.857 153.062 92.8272 161.098 92.8272 171.01C92.8272 180.922 100.857 188.958 110.762 188.958Z" fill="#FFB8B8"/>
<path d="M108.862 257.101L108.733 256.976C108.491 256.742 84.5951 233.315 87.6876 211.652C89.0102 202.387 96.5015 196.467 109.351 194.531C114.072 193.829 118.887 194.856 122.912 197.423C126.937 199.99 129.9 203.925 131.258 208.503L143.963 251.971L108.862 257.101Z" fill="#CCCCCC"/>
<path d="M96.6313 273.764L79.6039 256.832C78.4396 255.667 77.5944 254.223 77.1493 252.637C76.7043 251.051 76.6746 249.377 77.0629 247.777L85.306 214.222C85.5529 213.217 86.0034 212.273 86.6297 211.448C87.2559 210.624 88.0445 209.937 88.9466 209.43C89.8488 208.923 90.8453 208.607 91.8745 208.501C92.9038 208.395 93.9438 208.502 94.9302 208.814C96.8103 209.421 98.3807 210.736 99.3088 212.481C100.237 214.226 100.45 216.264 99.9023 218.163L91.224 247.683L105.257 262.763L96.6313 273.764Z" fill="#CCCCCC"/>
<path d="M187.96 215.978C187.51 216.953 186.852 217.818 186.032 218.511C185.211 219.204 184.249 219.709 183.213 219.989C182.177 220.27 181.092 220.32 180.034 220.136C178.977 219.951 177.972 219.537 177.092 218.922L154.361 230.712L155.366 220.697L175.517 208.217C176.647 206.805 178.256 205.858 180.037 205.554C181.819 205.25 183.65 205.61 185.184 206.567C186.718 207.523 187.847 209.01 188.359 210.745C188.871 212.479 188.729 214.341 187.96 215.978H187.96Z" fill="#FFB8B8"/>
<path d="M174.61 223.433L152.45 233.016C150.976 233.649 149.363 233.891 147.767 233.72C146.172 233.549 144.647 232.969 143.34 232.038L115.161 211.834C114.32 211.231 113.612 210.461 113.08 209.573C112.548 208.685 112.204 207.697 112.069 206.671C111.934 205.644 112.011 204.601 112.295 203.606C112.579 202.61 113.064 201.683 113.72 200.883C114.981 199.361 116.785 198.391 118.749 198.177C120.713 197.963 122.683 198.523 124.242 199.737L148.403 218.767L167.608 211.332L174.61 223.433Z" fill="#CCCCCC"/>
<path d="M113.735 176.761C115.948 173.987 120.081 173.838 123.121 172.008C127.102 169.611 128.747 164.254 127.465 159.786C126.182 155.317 122.398 151.834 118.061 150.169C113.723 148.503 108.897 148.483 104.321 149.288C97.5078 150.487 90.8002 153.669 86.6449 159.203C82.4897 164.738 81.4323 172.843 85.198 178.65C86.9288 181.319 89.6007 183.522 90.2916 186.627C91.1988 190.705 88.3409 194.637 85.2793 197.476C81.7912 200.71 77.7895 203.419 74.7336 207.065C71.6777 210.711 69.6399 215.693 71.0343 220.242C72.2027 224.054 75.6025 226.862 79.3306 228.269C83.0587 229.675 87.1191 229.878 91.1026 229.956C94.9706 230.032 99.0792 229.938 102.338 227.851C105.826 225.616 107.689 221.377 107.826 217.235C107.964 213.093 106.58 209.034 104.727 205.328C103.622 203.119 102.337 200.978 101.603 198.62C100.868 196.261 100.741 193.585 101.917 191.413C103.153 189.129 105.654 187.752 108.2 187.252C108.332 187.226 108.472 187.203 108.619 187.182C109.343 187.088 110.041 186.848 110.67 186.476C111.299 186.104 111.846 185.609 112.279 185.02C112.711 184.43 113.019 183.759 113.185 183.047C113.351 182.335 113.371 181.597 113.243 180.877C112.953 179.259 112.978 177.71 113.735 176.761Z" fill="#12130F"/>
<path d="M352.861 414.547H343.908L339.65 379.992L352.862 379.993L352.861 414.547Z" fill="#A0616A"/>
<path d="M337.514 411.987H354.779V422.865H326.643C326.643 421.437 326.924 420.022 327.471 418.702C328.017 417.383 328.818 416.183 329.827 415.173C330.837 414.163 332.035 413.362 333.354 412.815C334.673 412.268 336.086 411.987 337.514 411.987Z" fill="#12130F"/>
<path d="M417.817 404.399L409.674 408.121L391.453 378.461L403.471 372.967L417.817 404.399Z" fill="#A0616A"/>
<path d="M402.795 408.451L418.499 401.273L423.016 411.168L397.423 422.866C396.83 421.566 396.499 420.163 396.448 418.735C396.397 417.308 396.627 415.884 397.126 414.545C397.625 413.207 398.382 411.98 399.355 410.934C400.327 409.888 401.496 409.045 402.795 408.451Z" fill="#12130F"/>
<path d="M391.747 298.036C392.604 297.39 393.31 296.564 393.814 295.615C394.318 294.667 394.608 293.619 394.664 292.547C394.72 291.474 394.54 290.402 394.137 289.406C393.734 288.41 393.118 287.515 392.332 286.784L402.855 262.889L389.486 265.156L381.542 287.5C380.402 288.903 379.815 290.676 379.894 292.482C379.972 294.289 380.71 296.005 381.968 297.303C383.226 298.602 384.916 299.394 386.718 299.529C388.52 299.664 390.31 299.133 391.747 298.036Z" fill="#A0616A"/>
<path d="M352.29 405.436H343.738C342.909 405.433 342.111 405.117 341.503 404.552C340.896 403.987 340.524 403.213 340.461 402.386L335.797 277.752C335.762 277.275 335.832 276.795 336.002 276.347C336.171 275.9 336.437 275.495 336.779 275.16C337.122 274.826 337.533 274.57 337.985 274.412C338.436 274.253 338.917 274.195 339.393 274.241L388.854 279.498C389.656 279.576 390.401 279.947 390.948 280.538C391.494 281.13 391.805 281.902 391.821 282.708L392.857 337.685C392.863 337.984 392.92 338.279 393.028 338.558L413.317 391.209C413.474 391.616 413.548 392.05 413.536 392.486C413.523 392.921 413.424 393.35 413.245 393.747C413.065 394.145 412.808 394.502 412.49 394.799C412.171 395.096 411.796 395.327 411.387 395.477L402.72 398.673C401.968 398.95 401.14 398.942 400.392 398.651C399.645 398.36 399.029 397.805 398.662 397.091L373.738 348.593C373.603 348.329 373.503 348.048 373.443 347.758L369.185 327.229C369.062 326.634 368.731 326.102 368.251 325.729C367.771 325.356 367.174 325.166 366.567 325.194C365.961 325.221 365.383 325.464 364.939 325.879C364.495 326.294 364.213 326.853 364.144 327.457L355.555 402.521C355.463 403.323 355.08 404.064 354.478 404.601C353.876 405.139 353.097 405.436 352.29 405.436Z" fill="#12130F"/>
<path d="M356.549 180.301C366.454 180.301 374.484 172.266 374.484 162.353C374.484 152.441 366.454 144.406 356.549 144.406C346.644 144.406 338.614 152.441 338.614 162.353C338.614 172.266 346.644 180.301 356.549 180.301Z" fill="#A0616A"/>
<path d="M368.848 289.148C356.686 289.014 344.813 285.415 334.621 278.773L334.447 278.653L334.465 278.441L341.325 198.487C341.561 195.774 342.771 193.239 344.731 191.35C346.691 189.461 349.268 188.346 351.985 188.211C360.876 187.803 372.819 188.318 379.212 193.083C388.873 200.284 393.53 211.128 391.987 222.833C388.789 247.107 392.412 279.852 392.836 283.505L392.867 283.769L392.626 283.879C385.178 287.347 377.063 289.145 368.848 289.148Z" fill="#FF4155"/>
<path d="M392.753 283.641C392.248 283.64 391.748 283.534 391.285 283.33C390.822 283.126 390.407 282.829 390.065 282.456L386.142 278.173C385.718 277.707 385.421 277.14 385.279 276.527C385.138 275.913 385.156 275.273 385.332 274.669L394.278 244.37L380.667 215.766C380.031 214.427 379.876 212.91 380.226 211.47C380.535 210.205 381.219 209.065 382.189 208.198C383.159 207.331 384.369 206.778 385.659 206.613C386.949 206.448 388.259 206.679 389.416 207.274C390.572 207.869 391.522 208.801 392.138 209.947L410.609 239.938C411.359 241.154 411.799 242.537 411.891 243.964C411.983 245.39 411.723 246.818 411.135 248.121L396.085 281.49C395.837 282.041 395.456 282.523 394.976 282.89C394.496 283.257 393.932 283.499 393.335 283.594C393.142 283.625 392.948 283.641 392.753 283.641Z" fill="#FF4155"/>
<path d="M266.337 225.763C267.198 226.404 268.19 226.848 269.241 227.065C270.293 227.281 271.379 227.264 272.423 227.015C273.467 226.765 274.444 226.29 275.285 225.622C276.125 224.954 276.81 224.11 277.289 223.149L303.166 226.507L297.219 214.312L273.558 212.993C271.891 212.294 270.025 212.231 268.315 212.816C266.605 213.402 265.169 214.594 264.279 216.168C263.389 217.742 263.107 219.589 263.486 221.357C263.866 223.125 264.88 224.693 266.337 225.763V225.763Z" fill="#A0616A"/>
<path d="M323.375 232.423C322.924 232.423 322.474 232.392 322.028 232.33L281.318 226.68C280.653 226.588 280.02 226.332 279.479 225.936C278.937 225.539 278.502 225.013 278.214 224.406C278.121 224.211 278.043 224.008 277.982 223.8H277.982C277.824 223.261 277.78 222.694 277.852 222.137C277.925 221.58 278.112 221.043 278.401 220.562L281.77 214.973C282.133 214.375 282.642 213.881 283.251 213.537C283.859 213.194 284.545 213.012 285.243 213.01H285.249L320.734 213.05L347.237 189.289C348.47 188.186 350.044 187.541 351.696 187.463C353.146 187.395 354.583 187.77 355.817 188.536C357.05 189.302 358.023 190.425 358.606 191.756C359.189 193.087 359.355 194.563 359.082 195.99C358.81 197.417 358.112 198.728 357.08 199.75L330.635 229.183C329.72 230.203 328.6 231.018 327.35 231.576C326.099 232.135 324.745 232.423 323.375 232.423Z" fill="#FF4155"/>
<path d="M358.588 178.32C360.227 174.524 361.614 169.469 358.47 166.785C356.646 165.229 354.02 165.225 351.631 165.032C344.901 164.486 337.972 161.387 334.682 155.486C331.393 149.584 333.23 140.809 339.436 138.147C343.62 136.352 348.416 137.575 352.795 138.817L365.943 142.549C369.85 143.657 373.952 144.88 376.764 147.811C381.25 152.486 380.914 160.388 377.352 165.8C373.789 171.212 368.424 176.857 362.282 178.912L358.588 178.32Z" fill="#12130F"/>
<path d="M539.983 423.103H0.869459C0.755068 423.104 0.641741 423.082 0.535962 423.038C0.430184 422.994 0.334043 422.93 0.25304 422.85C0.172036 422.769 0.107764 422.673 0.063912 422.567C0.0200599 422.461 -0.0025177 422.348 -0.0025177 422.233C-0.0025177 422.119 0.0200599 422.006 0.063912 421.9C0.107764 421.794 0.172036 421.698 0.25304 421.617C0.334043 421.536 0.430184 421.472 0.535962 421.429C0.641741 421.385 0.755068 421.363 0.869459 421.363H539.983C540.097 421.363 540.21 421.385 540.316 421.429C540.422 421.472 540.518 421.536 540.599 421.617C540.68 421.698 540.744 421.794 540.788 421.9C540.832 422.006 540.855 422.119 540.855 422.233C540.855 422.348 540.832 422.461 540.788 422.567C540.744 422.673 540.68 422.769 540.599 422.85C540.518 422.93 540.422 422.994 540.316 423.038C540.21 423.082 540.097 423.104 539.983 423.103Z" fill="#3F3D56"/>
</g>
<defs>
<clipPath id="clip0_314_108">
<rect width="600" height="423.103" fill="white"/>
</clipPath>
</defs>
</svg>
