<svg width="563" height="442" viewBox="0 0 563 442" fill="none" xmlns="http://www.w3.org/2000/svg">
<g clip-path="url(#clip0_314_63)">
<path d="M257.469 313.911L257.472 312.968C259.349 312.974 261.255 312.941 263.137 312.872L263.172 313.815C261.277 313.885 259.359 313.917 257.469 313.911ZM251.768 313.783C249.881 313.704 247.966 313.585 246.077 313.43L246.155 312.489C248.031 312.644 249.934 312.762 251.808 312.841L251.768 313.783ZM268.865 313.492L268.793 312.551C270.667 312.407 272.564 312.223 274.431 312.004L274.541 312.941C272.662 313.162 270.752 313.347 268.865 313.492ZM240.404 312.849C238.523 312.617 236.623 312.345 234.759 312.04L234.912 311.11C236.764 311.413 238.65 311.683 240.52 311.912L240.404 312.849ZM280.19 312.163L280.042 311.232C281.895 310.939 283.771 310.603 285.618 310.234L285.803 311.158C283.944 311.531 282.055 311.868 280.19 312.163H280.19ZM229.152 311.005C227.295 310.623 225.424 310.199 223.59 309.744L223.818 308.828C225.639 309.28 227.498 309.702 229.342 310.081L229.152 311.005ZM291.371 309.927L291.148 309.011C292.978 308.567 294.821 308.081 296.625 307.565L296.885 308.472C295.068 308.991 293.213 309.481 291.371 309.927H291.371ZM218.085 308.259C216.266 307.728 214.435 307.153 212.644 306.551L212.945 305.657C214.724 306.255 216.543 306.826 218.349 307.353L218.085 308.259ZM302.334 306.794L302.038 305.898C303.823 305.309 305.619 304.675 307.38 304.014L307.712 304.896C305.94 305.563 304.131 306.201 302.335 306.794H302.334ZM207.262 304.619C205.493 303.943 203.711 303.221 201.966 302.471L202.338 301.605C204.072 302.349 205.842 303.067 207.6 303.738L207.262 304.619ZM312.994 302.79L312.626 301.921C314.354 301.19 316.09 300.415 317.784 299.617L318.187 300.47C316.481 301.273 314.734 302.054 312.994 302.79H312.994ZM196.762 300.111C195.049 299.292 193.333 298.428 191.66 297.542L192.102 296.709C193.764 297.588 195.468 298.447 197.169 299.26L196.762 300.111ZM323.285 297.942L322.848 297.106C324.514 296.237 326.183 295.324 327.808 294.392L328.278 295.21C326.642 296.148 324.962 297.067 323.285 297.942ZM186.667 294.77C185.025 293.815 183.385 292.815 181.792 291.8L182.3 291.005C183.882 292.013 185.511 293.006 187.143 293.956L186.667 294.77ZM333.159 292.278L332.656 291.48C334.242 290.483 335.833 289.439 337.384 288.375L337.918 289.152C336.357 290.223 334.755 291.275 333.159 292.278ZM177.042 288.638C175.484 287.555 173.93 286.428 172.424 285.288L172.994 284.536C174.491 285.668 176.034 286.788 177.581 287.864L177.042 288.638ZM342.55 285.837L341.985 285.082C343.485 283.962 344.988 282.793 346.451 281.607L347.046 282.339C345.573 283.534 344.061 284.71 342.55 285.838V285.837ZM167.945 281.755C166.483 280.554 165.025 279.307 163.612 278.048L164.24 277.344C165.644 278.594 167.092 279.834 168.545 281.027L167.945 281.755ZM351.399 278.663L350.776 277.956C352.186 276.715 353.591 275.429 354.951 274.133L355.603 274.816C354.234 276.12 352.82 277.414 351.399 278.663ZM159.432 274.171C158.075 272.859 156.722 271.5 155.412 270.13L156.095 269.479C157.396 270.839 158.74 272.19 160.089 273.492L159.432 274.171ZM359.649 270.801L358.971 270.145C360.277 268.797 361.575 267.403 362.829 266L363.533 266.628C362.271 268.04 360.964 269.444 359.649 270.801ZM151.558 265.934C150.303 264.512 149.064 263.05 147.875 261.587L148.608 260.992C149.789 262.446 151.02 263.898 152.266 265.31L151.558 265.934ZM367.247 262.302L366.518 261.703C367.716 260.25 368.898 258.755 370.033 257.261L370.785 257.83C369.643 259.335 368.453 260.84 367.247 262.302V262.302ZM144.37 257.098C143.237 255.585 142.12 254.029 141.05 252.473L141.828 251.939C142.891 253.484 144.001 255.03 145.127 256.533L144.37 257.098ZM374.142 253.219L373.367 252.68C374.444 251.134 375.504 249.549 376.514 247.968L377.31 248.475C376.293 250.067 375.226 251.663 374.142 253.219ZM137.918 247.72C136.911 246.123 135.923 244.483 134.981 242.846L135.799 242.376C136.735 244.003 137.717 245.631 138.717 247.217L137.918 247.72ZM380.287 243.607L379.471 243.132C380.422 241.503 381.35 239.837 382.23 238.179L383.064 238.621C382.178 240.29 381.244 241.967 380.287 243.607V243.607ZM132.243 237.859C131.369 236.188 130.516 234.475 129.71 232.768L130.563 232.366C131.365 234.061 132.212 235.762 133.08 237.423L132.243 237.859ZM385.638 233.526L384.786 233.118C385.6 231.422 386.391 229.686 387.136 227.957L388.003 228.33C387.253 230.071 386.457 231.819 385.638 233.526ZM127.385 227.582C126.647 225.842 125.936 224.068 125.272 222.307L126.156 221.975C126.815 223.723 127.521 225.486 128.254 227.214L127.385 227.582ZM390.157 223.039L389.275 222.702C389.951 220.94 390.598 219.144 391.199 217.364L392.094 217.665C391.489 219.457 390.837 221.265 390.157 223.039V223.039ZM123.37 216.936C122.774 215.141 122.208 213.31 121.687 211.493L122.595 211.234C123.113 213.038 123.675 214.857 124.266 216.64L123.37 216.936ZM393.806 212.23L392.9 211.965C393.427 210.167 393.925 208.33 394.38 206.503L395.296 206.731C394.838 208.57 394.337 210.42 393.806 212.23ZM120.227 205.986C119.779 204.148 119.364 202.277 118.991 200.425L119.917 200.239C120.287 202.079 120.7 203.938 121.144 205.763L120.227 205.986ZM396.562 201.177L395.637 200.986C396.016 199.15 396.363 197.278 396.669 195.423L397.601 195.576C397.293 197.444 396.944 199.328 396.562 201.177V201.177ZM117.982 194.818C117.686 192.955 117.423 191.057 117.201 189.175L118.138 189.065C118.359 190.934 118.62 192.819 118.915 194.67L117.982 194.818ZM398.413 189.936L397.476 189.821C397.707 187.955 397.902 186.061 398.057 184.193L398.998 184.27C398.842 186.151 398.645 188.058 398.413 189.936V189.936ZM116.647 183.506C116.501 181.622 116.391 179.708 116.32 177.819L117.263 177.784C117.334 179.661 117.443 181.561 117.588 183.433L116.647 183.506ZM399.356 178.586L398.413 178.546C398.493 176.666 398.537 174.763 398.543 172.888L398.543 172.576L399.488 172.579L399.487 172.889C399.481 174.778 399.437 176.694 399.356 178.586ZM117.164 172.125L116.219 172.122L116.22 171.964C116.226 170.124 116.268 168.261 116.345 166.428L117.288 166.468C117.212 168.288 117.17 170.139 117.164 171.969L117.164 172.125ZM398.438 166.919C398.366 165.046 398.255 163.145 398.107 161.27L399.049 161.196C399.197 163.084 399.309 164.997 399.381 166.883L398.438 166.919ZM117.637 160.82L116.696 160.743C116.851 158.855 117.046 156.948 117.275 155.076L118.212 155.19C117.984 157.05 117.791 158.944 117.637 160.82ZM397.551 155.638C397.329 153.777 397.066 151.892 396.768 150.034L397.701 149.885C398 151.755 398.266 153.653 398.488 155.527L397.551 155.638ZM119.013 149.589L118.081 149.437C118.386 147.57 118.734 145.685 119.114 143.834L120.039 144.024C119.661 145.862 119.316 147.734 119.013 149.589H119.013ZM395.759 144.466C395.386 142.622 394.971 140.764 394.526 138.944L395.443 138.72C395.892 140.552 396.309 142.423 396.684 144.28L395.759 144.466ZM121.29 138.505L120.373 138.278C120.828 136.444 121.328 134.593 121.857 132.777L122.764 133.041C122.238 134.845 121.742 136.683 121.29 138.505ZM393.07 133.475C392.55 131.672 391.986 129.853 391.393 128.07L392.289 127.773C392.886 129.568 393.454 131.399 393.977 133.214L393.07 133.475ZM124.458 127.642L123.563 127.341C124.167 125.547 124.816 123.738 125.494 121.964L126.376 122.301C125.703 124.063 125.058 125.86 124.458 127.642ZM389.497 122.738C388.832 120.981 388.124 119.219 387.392 117.501L388.261 117.132C388.998 118.862 389.711 120.635 390.38 122.404L389.497 122.738ZM128.51 117.044L127.642 116.672C128.389 114.931 129.184 113.182 130.002 111.473L130.854 111.879C130.041 113.577 129.252 115.315 128.51 117.044H128.51ZM385.077 112.351C384.275 110.658 383.426 108.957 382.556 107.297L383.392 106.859C384.269 108.531 385.123 110.242 385.931 111.948L385.077 112.351ZM133.405 106.815L132.57 106.374C133.456 104.702 134.388 103.023 135.342 101.386L136.158 101.86C135.211 103.486 134.285 105.154 133.405 106.815ZM379.831 102.347C378.892 100.72 377.909 99.0929 376.908 97.5092L377.706 97.0056C378.714 98.5999 379.703 100.239 380.649 101.876L379.831 102.347ZM139.109 97.0209L138.313 96.514C139.331 94.9175 140.395 93.3203 141.476 91.7669L142.251 92.3053C141.177 93.8484 140.12 95.4348 139.109 97.0209ZM373.791 92.7909C372.725 91.2457 371.614 89.7011 370.488 88.2006L371.243 87.6347C372.377 89.1454 373.496 90.7002 374.568 92.256L373.791 92.7909ZM145.58 87.7208L144.827 87.1518C145.97 85.6426 147.159 84.1367 148.36 82.6757L149.09 83.2745C147.897 84.7257 146.716 86.2216 145.58 87.7208ZM367.001 83.7448C365.815 82.2894 364.583 80.8381 363.339 79.4312L364.046 78.8066C365.299 80.223 366.539 81.6841 367.734 83.1493L367.001 83.7448ZM152.775 78.9729L152.07 78.3456C153.328 76.9349 154.633 75.5294 155.949 74.1681L156.628 74.8234C155.321 76.1755 154.025 77.5718 152.775 78.9729H152.775ZM359.505 75.266C358.203 73.9075 356.858 72.5587 355.507 71.2569L356.162 70.5778C357.522 71.8884 358.877 73.2462 360.187 74.6137L359.505 75.266ZM160.644 70.8317L159.991 70.1498C161.358 68.8446 162.771 67.5486 164.19 66.2973L164.815 67.0045C163.405 68.2475 162.001 69.5353 160.644 70.8317L160.644 70.8317ZM351.351 67.4098C349.944 66.1592 348.495 64.9215 347.043 63.7315L347.642 63.0023C349.103 64.2004 350.563 65.4462 351.979 66.7054L351.351 67.4098ZM169.136 63.3479L168.54 62.6165C170.008 61.4226 171.52 60.2442 173.032 59.1133L173.598 59.8682C172.096 60.9915 170.595 62.1624 169.136 63.3479L169.136 63.3479ZM342.589 60.228C341.087 59.0938 339.542 57.9758 337.998 56.905L338.537 56.1303C340.09 57.2082 341.646 58.3336 343.159 59.4755L342.589 60.228ZM178.196 56.5698L177.66 55.7929C179.22 54.7205 180.82 53.6671 182.417 52.6619L182.92 53.4598C181.335 54.4582 179.745 55.5045 178.196 56.5698ZM333.276 53.7682C331.687 52.7585 330.057 51.7678 328.43 50.8236L328.905 50.0081C330.542 50.9586 332.183 51.956 333.783 52.9724L333.276 53.7682ZM187.765 50.543L187.294 49.7254C188.929 48.785 190.608 47.8638 192.284 46.988L192.722 47.8235C191.057 48.6936 189.39 49.6085 187.765 50.543V50.543ZM323.468 48.0758C321.803 47.1976 320.098 46.3412 318.398 45.5303L318.804 44.6792C320.516 45.4953 322.234 46.3576 323.909 47.2418L323.468 48.0758ZM197.782 45.3072L197.378 44.4543C199.084 43.649 200.83 42.8667 202.57 42.1291L202.938 42.9973C201.211 43.7299 199.476 44.5069 197.782 45.3071L197.782 45.3072ZM313.226 43.1915C311.493 42.4496 309.722 41.7339 307.962 41.0636L308.299 40.1822C310.071 40.857 311.854 41.5778 313.598 42.3246L313.226 43.1915ZM208.182 40.8981L207.849 40.0155C209.618 39.3484 211.426 38.7081 213.224 38.1123L213.521 39.0077C211.736 39.5994 209.939 40.2356 208.182 40.8981ZM302.615 39.1504C300.832 38.5534 299.013 37.9849 297.208 37.4607L297.472 36.5552C299.289 37.0829 301.12 37.6551 302.914 38.2561L302.615 39.1504ZM218.933 37.3346L218.672 36.4283C220.49 35.9064 222.345 35.4146 224.185 34.9663L224.408 35.8826C222.581 36.328 220.739 36.8166 218.933 37.3346ZM291.738 35.9916C289.916 35.5414 288.057 35.122 286.212 34.745L286.402 33.8208C288.259 34.2004 290.13 34.6228 291.964 35.0758L291.738 35.9916ZM229.937 34.6542L229.751 33.7297C231.603 33.3572 233.491 33.017 235.363 32.7184L235.512 33.6497C233.653 33.9465 231.777 34.2844 229.937 34.6542ZM280.641 33.7228C278.785 33.421 276.898 33.1528 275.033 32.9261L275.147 31.9897C277.025 32.218 278.924 32.4879 280.793 32.792L280.641 33.7228ZM241.123 32.8708L241.011 31.9341C242.89 31.7118 244.8 31.5244 246.686 31.3777L246.76 32.3179C244.886 32.464 242.989 32.6499 241.123 32.8708ZM269.397 32.355C267.526 32.2031 265.624 32.0868 263.743 32.0095L263.782 31.0669C265.675 31.1449 267.59 31.2619 269.474 31.4148L269.397 32.355ZM252.415 31.9907L252.38 31.0483C254.268 30.9766 256.186 30.9419 258.081 30.9449L258.08 31.8881C256.197 31.8852 254.291 31.9197 252.415 31.9907Z" fill="#3F3D56"/>
<path d="M527.441 233.867L437.447 389.577L407.697 441.05L402.029 437.782L345.424 405.137L303.169 380.765L149.526 292.157L171.023 0L527.441 233.867Z" fill="#F1F1F1"/>
<path d="M107.25 296.383C111.772 277.926 126.421 263.048 145.013 258.721C154.895 256.419 165.238 257.083 174.744 260.63C184.422 264.277 192.722 270.763 200.447 277.481C215.368 290.458 229.822 303.966 247.847 312.626C263.947 320.36 282.077 323.645 299.584 319.033C307.519 317.02 314.891 313.225 321.137 307.938C327.529 302.41 332.027 295.172 335.011 287.323C341.266 270.872 341.141 252.877 345.917 236.043C348.378 227.367 352.284 219.171 358.522 212.559C364.69 206.023 372.539 201.234 380.866 197.946C400.611 190.151 421.981 190.783 442.839 191.058C462.551 191.318 482.752 190.979 501.216 183.224C509.444 179.769 517.125 174.884 523.196 168.293C529.663 161.271 533.971 152.636 537.056 143.674C538.648 139.047 539.917 134.32 541.058 129.565C541.482 127.795 538.751 127.039 538.326 128.812C535.964 138.657 533.029 148.513 527.836 157.28C522.98 165.423 516.085 172.163 507.83 176.836C490.433 186.82 469.896 188.338 450.27 188.294C429.207 188.247 407.66 186.681 387.201 192.775C370.551 197.734 355.228 207.67 347.518 223.683C339.843 239.624 339.575 257.712 335.754 274.705C333.857 283.144 331.019 291.453 325.931 298.538C320.858 305.6 313.594 310.877 305.552 314.096C288.359 320.978 269.186 318.96 252.496 311.66C233.786 303.477 218.799 289.844 203.653 276.532C196.357 270.12 188.683 263.877 179.828 259.733C172.606 256.315 164.713 254.548 156.722 254.559C148.731 254.57 140.842 256.36 133.63 259.798C126.418 263.235 120.063 268.235 115.027 274.433C109.992 280.632 106.402 287.873 104.518 295.631C104.085 297.399 106.816 298.154 107.25 296.383L107.25 296.383Z" fill="#3F3D56"/>
<path d="M307.869 365.774H260.433C257.196 347.081 257.196 327.97 260.433 309.276H307.869C302.525 327.731 302.525 347.32 307.869 365.774Z" fill="#FF6584"/>
<path d="M130.425 309.165H177.861C181.098 290.472 181.098 271.361 177.861 252.667H130.425C135.769 271.122 135.769 290.711 130.425 309.165Z" fill="#FF4155"/>
<path d="M140.477 276.435C142.065 275.813 143.774 275.556 145.475 275.683C147.177 275.811 148.827 276.32 150.305 277.173C152.797 278.564 155.058 280.263 157.95 280.707C160.318 281.064 162.739 280.694 164.892 279.647C167.655 278.297 169.361 275.7 171.726 273.836C173.053 272.791 171.182 270.944 169.868 271.98C167.557 273.8 165.91 276.447 163.095 277.565C160.082 278.762 157.149 278.151 154.416 276.578C152.213 275.31 150.159 273.859 147.63 273.307C145.01 272.745 142.283 272.952 139.779 273.904C138.207 274.487 138.887 277.026 140.477 276.435L140.477 276.435Z" fill="#F2F2F2"/>
<path d="M140.477 289.124C142.065 288.502 143.774 288.245 145.475 288.372C147.177 288.5 148.827 289.009 150.305 289.862C152.797 291.253 155.058 292.952 157.95 293.396C160.318 293.753 162.739 293.383 164.892 292.336C167.655 290.986 169.361 288.389 171.726 286.525C173.053 285.48 171.182 283.633 169.868 284.669C167.557 286.489 165.91 289.135 163.095 290.254C160.082 291.451 157.149 290.84 154.416 289.267C152.213 287.999 150.159 286.548 147.63 285.996C145.01 285.434 142.283 285.641 139.779 286.592C138.207 287.176 138.887 289.714 140.477 289.124H140.477Z" fill="#F2F2F2"/>
<path d="M294.938 325.878C293.35 325.256 291.641 324.999 289.94 325.127C288.238 325.254 286.588 325.763 285.11 326.616C282.618 328.007 280.357 329.706 277.465 330.15C275.097 330.507 272.676 330.137 270.523 329.09C267.76 327.741 266.054 325.143 263.689 323.279C262.362 322.234 264.233 320.388 265.547 321.423C267.858 323.243 269.505 325.89 272.32 327.008C275.333 328.205 278.266 327.594 280.999 326.021C283.202 324.753 285.256 323.302 287.785 322.75C290.405 322.188 293.132 322.395 295.636 323.347C297.208 323.93 296.528 326.469 294.938 325.878H294.938Z" fill="#F2F2F2"/>
<path d="M294.938 338.13C293.35 337.507 291.641 337.25 289.94 337.378C288.238 337.506 286.588 338.015 285.11 338.868C282.618 340.259 280.357 341.958 277.465 342.401C275.097 342.758 272.676 342.389 270.523 341.342C267.76 339.992 266.054 337.394 263.689 335.531C262.362 334.485 264.233 332.639 265.547 333.674C267.858 335.494 269.505 338.141 272.32 339.259C275.333 340.456 278.266 339.845 280.999 338.272C283.202 337.004 285.256 335.553 287.785 335.002C290.405 334.439 293.132 334.646 295.636 335.598C297.208 336.182 296.528 338.72 294.938 338.13H294.938Z" fill="#F2F2F2"/>
<path d="M294.938 350.381C293.35 349.758 291.641 349.502 289.94 349.629C288.238 349.757 286.588 350.266 285.11 351.119C282.618 352.51 280.357 354.209 277.465 354.652C275.097 355.01 272.676 354.64 270.523 353.593C267.76 352.243 266.054 349.645 263.689 347.782C262.362 346.737 264.233 344.89 265.547 345.926C267.858 347.746 269.505 350.392 272.32 351.51C275.333 352.708 278.266 352.097 280.999 350.524C283.202 349.256 285.256 347.805 287.785 347.253C290.405 346.69 293.132 346.897 295.636 347.849C297.208 348.433 296.528 350.971 294.938 350.381H294.938Z" fill="#F2F2F2"/>
<path d="M388.47 106.184C378.318 89.048 358.233 88.2495 358.233 88.2495C358.233 88.2495 338.661 85.7493 326.106 111.847C314.404 136.172 298.253 159.658 323.506 165.353L328.067 151.171L330.892 166.408C334.488 166.667 338.095 166.728 341.697 166.593C368.741 165.721 394.496 166.848 393.667 157.154C392.564 144.267 398.238 122.671 388.47 106.184Z" fill="#12130F"/>
<path d="M319.165 268.898L284.927 292.648C284.927 292.648 264.955 313.549 279.221 313.549C293.487 313.549 299.193 295.499 299.193 295.499L342.941 276.498L319.165 268.898Z" fill="#FFB8B8"/>
<path d="M332.955 176.27C332.955 176.27 302.997 268.898 312.507 273.648C322.018 278.398 342.941 281.248 342.941 281.248L332.955 176.27Z" fill="#D0CDE1"/>
<path opacity="0.1" d="M332.955 176.27C332.955 176.27 302.997 268.898 312.507 273.648C322.018 278.398 342.941 281.248 342.941 281.248L332.955 176.27Z" fill="#12130F"/>
<path d="M437.446 389.577L407.697 441.051L402.029 437.782C391.196 396.272 378.131 346.798 378.131 346.798L345.424 405.137L303.169 380.765C313.282 359.015 330.575 307.848 330.575 307.848L407.613 268.897C407.613 268.897 432.339 284.097 433.29 321.149C434.24 358.201 434.24 380.052 434.24 380.052C434.24 380.052 435.497 383.662 437.446 389.577Z" fill="#12130F"/>
<path d="M351.976 152.519C365.632 152.519 376.703 141.46 376.703 127.819C376.703 114.177 365.632 103.118 351.976 103.118C338.319 103.118 327.248 114.177 327.248 127.819C327.248 141.46 338.319 152.519 351.976 152.519Z" fill="#FFB8B8"/>
<path d="M351.5 148.244C351.5 148.244 357.206 166.295 351.5 172.945C345.794 179.595 382.884 163.445 382.884 163.445C382.884 163.445 369.57 144.444 373.374 135.894L351.5 148.244Z" fill="#FFB8B8"/>
<path d="M386.662 152.179C385.967 153.305 385.18 154.372 384.311 155.369C383.36 156.319 377.654 157.27 376.703 159.17C375.751 161.07 361.728 163.778 361.728 163.778L356.731 165.82C356.731 165.82 332.955 171.52 332.955 176.27C332.955 181.02 331.053 195.271 331.053 195.271C331.053 195.271 323.444 203.821 328.199 224.721C330.032 232.775 332.586 248.397 331.153 264.955C328.869 291.369 322.135 319.872 329.151 321.624C340.563 324.474 372.898 325.424 383.36 311.174C393.821 296.924 394.772 284.573 406.185 283.623C417.597 282.673 404.283 243.722 404.283 243.722L418.548 150.619C418.548 150.619 394.72 142.339 386.662 152.179Z" fill="#D0CDE1"/>
<path d="M357.942 300.554H405.378C408.615 281.86 408.615 262.75 405.378 244.056H357.942C363.286 262.51 363.286 282.1 357.942 300.554Z" fill="#FF4155"/>
<path d="M367.807 263.309C369.395 262.686 371.104 262.429 372.805 262.557C374.506 262.685 376.157 263.194 377.634 264.047C380.127 265.438 382.388 267.137 385.28 267.58C387.648 267.937 390.068 267.568 392.221 266.521C394.985 265.171 396.69 262.573 399.056 260.71C400.383 259.664 398.512 257.818 397.198 258.853C394.887 260.673 393.24 263.32 390.425 264.438C387.412 265.635 384.478 265.024 381.745 263.451C379.542 262.184 377.489 260.732 374.96 260.181C372.34 259.618 369.613 259.825 367.108 260.777C365.537 261.361 366.217 263.899 367.807 263.309Z" fill="#F2F2F2"/>
<path d="M367.807 275.56C369.395 274.937 371.104 274.681 372.805 274.808C374.506 274.936 376.157 275.445 377.634 276.298C380.127 277.689 382.388 279.388 385.28 279.832C387.648 280.189 390.068 279.819 392.221 278.772C394.985 277.422 396.69 274.824 399.056 272.961C400.383 271.916 398.512 270.069 397.198 271.105C394.887 272.925 393.24 275.571 390.425 276.69C387.412 277.887 384.478 277.276 381.745 275.703C379.542 274.435 377.489 272.984 374.96 272.432C372.34 271.869 369.613 272.077 367.108 273.028C365.537 273.612 366.217 276.15 367.807 275.56Z" fill="#F2F2F2"/>
<path d="M436.143 209.996L401.905 233.747C401.905 233.747 381.933 254.647 396.199 254.647C410.464 254.647 416.171 236.597 416.171 236.597L459.918 217.596L436.143 209.996Z" fill="#FFB8B8"/>
<path d="M377.324 104.532L357.481 94.1488L345.032 96.0785C340.622 96.7621 336.519 98.7544 333.257 101.797C329.995 104.839 327.723 108.791 326.738 113.139L324.41 123.41L338.523 122.867L342.465 113.678V122.716L348.977 122.466L352.757 107.835L355.119 123.41L378.269 122.938L377.324 104.532Z" fill="#12130F"/>
<path d="M411.891 152.519L418.548 150.619C418.548 150.619 486.072 178.17 484.17 201.921C482.268 225.672 485.121 225.672 473.709 226.622C462.296 227.572 429.01 216.171 429.961 214.271C430.912 212.371 437.569 202.871 437.569 202.871L411.891 182.92V152.519Z" fill="#D0CDE1"/>
<path d="M376.703 131.619C378.804 131.619 380.507 129.917 380.507 127.819C380.507 125.72 378.804 124.019 376.703 124.019C374.602 124.019 372.898 125.72 372.898 127.819C372.898 129.917 374.602 131.619 376.703 131.619Z" fill="#FFB8B8"/>
<path d="M414.081 191.248C438.9 189.91 464.064 193.43 488.483 187.43C490.252 186.996 489.503 184.266 487.73 184.702C463.577 190.636 438.633 187.095 414.081 188.418C412.267 188.516 412.256 191.346 414.081 191.248V191.248Z" fill="#3F3D56"/>
<path d="M523.636 232.496L563 206.054C555.244 188.737 544.568 172.879 531.439 159.171L492.076 185.613C506.819 197.948 517.762 214.203 523.636 232.496Z" fill="#FF4155"/>
<path d="M513.695 199.732C514.665 198.33 515.939 197.165 517.422 196.322C518.905 195.48 520.56 194.982 522.262 194.867C525.107 194.632 527.933 194.781 530.581 193.537C532.745 192.513 534.547 190.858 535.749 188.788C537.288 186.128 537.252 183.021 538.174 180.157C538.692 178.549 536.107 178.06 535.595 179.652C534.694 182.45 534.806 185.565 533.094 188.062C531.263 190.735 528.488 191.863 525.341 192.081C522.804 192.257 520.29 192.197 517.883 193.149C515.394 194.143 513.247 195.835 511.701 198.021C510.723 199.381 512.705 201.109 513.695 199.732V199.732Z" fill="#F2F2F2"/>
<path d="M520.783 210.262C521.753 208.86 523.027 207.695 524.51 206.852C525.994 206.01 527.648 205.512 529.35 205.396C532.196 205.161 535.021 205.311 537.669 204.066C539.833 203.043 541.635 201.387 542.837 199.318C544.376 196.658 544.34 193.551 545.262 190.686C545.78 189.079 543.196 188.59 542.683 190.182C541.783 192.98 541.894 196.095 540.183 198.591C538.351 201.264 535.576 202.393 532.429 202.611C529.893 202.787 527.378 202.727 524.971 203.679C522.483 204.673 520.336 206.365 518.789 208.551C517.811 209.911 519.793 211.638 520.783 210.262V210.262Z" fill="#F2F2F2"/>
<path d="M199.116 26.4634L0.16748 25.8135L-2.69416e-05 76.9808L198.948 77.6307L199.116 26.4634Z" fill="#3F3D56"/>
<path d="M23.8595 65.32C31.5569 65.32 37.7968 59.0866 37.7968 51.3974C37.7968 43.7082 31.5569 37.4749 23.8595 37.4749C16.162 37.4749 9.92206 43.7082 9.92206 51.3974C9.92206 59.0866 16.162 65.32 23.8595 65.32Z" fill="#FF4155"/>
<path d="M110.801 39.9428L53.1389 39.7544L53.1255 43.8492L110.788 44.0376L110.801 39.9428Z" fill="white"/>
<path d="M180.182 49.9972L53.1068 49.582L53.0933 53.6769L180.169 54.092L180.182 49.9972Z" fill="white"/>
<path d="M180.15 59.8248L53.0745 59.4097L53.0611 63.5045L180.137 63.9196L180.15 59.8248Z" fill="white"/>
<path d="M199.116 162.769L0.16748 162.119L-2.69587e-05 213.287L198.948 213.937L199.116 162.769Z" fill="#3F3D56"/>
<path d="M23.8595 201.626C31.5569 201.626 37.7968 195.392 37.7968 187.703C37.7968 180.014 31.5569 173.781 23.8595 173.781C16.162 173.781 9.92206 180.014 9.92206 187.703C9.92206 195.392 16.162 201.626 23.8595 201.626Z" fill="#FF4155"/>
<path d="M110.801 176.249L53.1389 176.06L53.1255 180.155L110.788 180.344L110.801 176.249Z" fill="white"/>
<path d="M180.182 186.303L53.1068 185.888L53.0933 189.983L180.169 190.398L180.182 186.303Z" fill="white"/>
<path d="M180.15 196.131L53.0745 195.716L53.0611 199.81L180.137 200.226L180.15 196.131Z" fill="white"/>
<path d="M48.0415 145.834L246.99 145.184L246.822 94.0171L47.874 94.667L48.0415 145.834Z" fill="#3F3D56"/>
<path d="M223.13 133.524C230.828 133.524 237.068 127.29 237.068 119.601C237.068 111.912 230.828 105.678 223.13 105.678C215.433 105.678 209.193 111.912 209.193 119.601C209.193 127.29 215.433 133.524 223.13 133.524Z" fill="#FF4155"/>
<path d="M136.202 112.241L193.864 112.053L193.851 107.958L136.189 108.146L136.202 112.241Z" fill="white"/>
<path d="M66.821 122.296L193.897 121.881L193.883 117.786L66.8076 118.201L66.821 122.296Z" fill="white"/>
<path d="M66.8532 132.123L193.929 131.708L193.915 127.613L66.8398 128.028L66.8532 132.123Z" fill="white"/>
</g>
<defs>
<clipPath id="clip0_314_63">
<rect width="563" height="441.051" fill="white"/>
</clipPath>
</defs>
</svg>
